<?xml version="1.0" encoding="UTF-8"?>
<svg id="Capa_1" xmlns="http://www.w3.org/2000/svg" version="1.1" viewBox="0 0 99 198">
  <!-- Generator: Adobe Illustrator 29.3.1, SVG Export Plug-In . SVG Version: 2.1.0 Build 151)  -->
  <defs>
    <style>
      .st0 {
        fill: #163223;
      }
    </style>
  </defs>
  <path class="st0" d="M51,5.4c8.62,14.52,21.05,26.27,29.17,41.33,19.54,36.22,17.79,75.47-8.77,107.57-3.33,4.03-14.29,12.95-15.85,16.15-1.99,4.08-1.78,21.16-2.55,21.95-.24.25-6.76.25-7.01,0-.78-.79-.48-17.7-2.55-21.95-1.17-2.4-12.13-11.64-14.96-15.04-11.37-13.65-18.52-29.74-22.49-47.01.71-8.24-.97-17.97,0-26,.96-26.08,17.64-48.53,33.8-67.9,2.17-4.2,4.9-7.23,8.2-9.1h3ZM49.01,78.41c.07,28.99-3.73,58.07-2.51,86.99,2.28,3.97,6.74,1.18,7.04-2.45.58-6.99-1.33-16.89-1.59-24-.49-13.38-.8-26.68-.92-40.08l-2.03-20.45Z"/>
</svg>